<svg width="85" height="74" viewBox="0 0 85 74" fill="none" xmlns="http://www.w3.org/2000/svg">
<rect x="34.957" y="27" width="44" height="37" rx="18.5" transform="rotate(14.0094 34.957 27)" fill="#D43404"/>
<rect x="29.8458" y="27" width="45.5349" height="32.41" rx="16.205" transform="rotate(14.0094 29.8458 27)" fill="#FEBE00"/>
<rect x="35.6852" y="28.2123" width="42" height="35" rx="17.5" transform="rotate(14.0094 35.6852 28.2123)" stroke="#262A2A" stroke-width="2"/>
<path fill-rule="evenodd" clip-rule="evenodd" d="M41.1585 66.443C49.2904 65.3765 56.3317 59.4688 58.4373 51.0294C60.2492 43.7675 57.9544 36.4438 53.0243 31.5078L59.6985 33.1731C60.5406 33.3832 61.3547 33.6479 62.1379 33.9625C64.9603 39.4775 65.8764 45.9988 64.2589 52.4819C62.4114 59.8863 57.6231 65.7821 51.4498 69.2348C51.2137 69.1855 50.9776 69.1314 50.7415 69.0725L43.9497 67.378C42.9808 67.1362 42.049 66.8222 41.1585 66.443Z" fill="#262A2A"/>
<path fill-rule="evenodd" clip-rule="evenodd" d="M32.4396 58.7349C39.1327 56.7048 44.6211 51.3089 46.4373 44.0294C47.5488 39.5746 47.1149 35.0965 45.4752 31.1606C47.5505 30.8241 49.7129 30.8388 51.8819 31.2529C53.2594 35.7225 53.4737 40.613 52.2589 45.4819C50.1325 54.0043 44.11 60.5282 36.5641 63.6285C34.9072 62.2421 33.5147 60.5815 32.4396 58.7349Z" fill="#262A2A"/>
<path d="M25.2822 23.2571C25.6061 17.2917 30.3189 12.4998 36.278 12.0767V12.0767C46.0989 11.3793 52.4393 22.2661 46.9866 30.4639L37.4318 44.8291C35.8633 47.1873 33.0501 48.3966 30.2597 47.9121V47.9121C26.6911 47.2925 24.1505 44.101 24.3469 40.4843L25.2822 23.2571Z" fill="#84FFE4"/>
<path fill-rule="evenodd" clip-rule="evenodd" d="M24.9329 29.6917L24.3469 40.4843C24.1505 44.1009 26.6911 47.2925 30.2597 47.9121C33.0501 48.3966 35.8634 47.1873 37.4319 44.8291L46.9866 30.4639C49.9895 25.9492 49.4157 20.6189 46.6535 16.8571L37.4139 30.7484C35.8454 33.1065 33.0322 34.3158 30.2418 33.8313C27.8217 33.4111 25.8744 31.8081 24.9329 29.6917Z" fill="#175286"/>
<path fill-rule="evenodd" clip-rule="evenodd" d="M36.278 12.0767C30.3189 12.4998 25.6061 17.2918 25.2822 23.2571L24.3469 40.4843C24.1505 44.101 26.6911 47.2925 30.2597 47.9121C30.2753 47.9148 30.2909 47.9175 30.3066 47.9201C29.5723 46.7216 29.1853 45.2984 29.2665 43.8025L30.2018 26.5753C30.5257 20.6099 35.2385 15.818 41.1976 15.3949C42.9091 15.2734 44.5149 15.5036 45.9709 16.0102C43.6873 13.424 40.2703 11.7932 36.278 12.0767Z" fill="white"/>
<path d="M46.154 29.9101L36.5992 44.2753C35.2502 46.3035 32.8307 47.3435 30.4307 46.9268C27.3616 46.3939 25.1765 43.649 25.3454 40.5385L26.2807 23.3113C26.5773 17.8493 30.8925 13.4616 36.3489 13.0742C45.3412 12.4357 51.1466 22.4039 46.154 29.9101Z" stroke="#262A2A" stroke-width="2"/>
<path d="M45.1719 21.6091C48.2428 16.4847 54.6475 14.4468 60.1151 16.8543V16.8543C69.1259 20.8218 69.6513 33.4093 61.0025 38.114L45.847 46.3581C43.3591 47.7114 40.3067 47.4677 38.0651 45.7367V45.7367C35.1984 43.523 34.4413 39.5145 36.3032 36.4077L45.1719 21.6091Z" fill="#84FFE4"/>
<path fill-rule="evenodd" clip-rule="evenodd" d="M35.328 40.848C35.5311 42.7232 36.4726 44.5069 38.0651 45.7367C40.3067 47.4677 43.3591 47.7114 45.847 46.3581L61.0025 38.114C67.2485 34.7164 68.7098 27.2075 65.6457 21.8031C66.6759 26.62 64.7472 32.0104 59.7247 34.7425L44.5693 42.9865C42.0814 44.3399 39.0289 44.0961 36.7873 42.3651C36.2156 41.9237 35.7278 41.4108 35.328 40.848Z" fill="#175286"/>
<path fill-rule="evenodd" clip-rule="evenodd" d="M59.8978 16.7611C54.4788 14.5012 48.2022 16.5525 45.1719 21.6091L36.3032 36.4077C34.4413 39.5145 35.1984 43.5229 38.0651 45.7367C39.4561 46.8108 41.1593 47.3122 42.846 47.2148C42.5409 47.0442 42.2458 46.8499 41.9636 46.632C39.0969 44.4183 38.3399 40.4098 40.2017 37.3031L49.0704 22.5044C51.3905 18.6329 55.6136 16.5231 59.8978 16.7611Z" fill="white"/>
<path d="M60.5246 37.2356L45.3692 45.4796C43.2295 46.6436 40.6042 46.4339 38.6763 44.9452C36.2108 43.0413 35.5597 39.5938 37.161 36.9218L46.0296 22.1232C48.8415 17.4311 54.7058 15.5651 59.7121 17.7695C67.9627 21.4023 68.4438 32.9278 60.5246 37.2356Z" stroke="#262A2A" stroke-width="2"/>
<rect x="10" y="33" width="35" height="35" rx="17.5" fill="#D43404" stroke="#262A2A" stroke-width="2"/>
<rect x="11" y="34" width="32" height="32" rx="16" fill="#FEBE00"/>
<path d="M27 34C18.1634 34 11 41.1634 11 50C11 54.6727 13.003 58.8775 16.1973 61.8027C13.5906 58.9563 12 55.1639 12 51C12 42.1634 19.1634 35 28 35C32.1639 35 35.9563 36.5906 38.8027 39.1973C35.8775 36.003 31.6727 34 27 34Z" fill="white"/>
<path d="M19 53H28V53.5C28 55.9853 25.9853 58 23.5 58V58C21.0147 58 19 55.9853 19 53.5V53Z" fill="#262A2A"/>
<path fill-rule="evenodd" clip-rule="evenodd" d="M21.4687 46.6453C21.2074 46.8666 20.8693 47 20.5 47C19.6716 47 19 46.3284 19 45.5C19 45.3418 19.0245 45.1893 19.0699 45.0462C18.8844 45.0158 18.6941 45 18.5 45C16.567 45 15 46.567 15 48.5V49H22V48.5C22 47.8188 21.8054 47.183 21.4687 46.6453Z" fill="#262A2A"/>
<path fill-rule="evenodd" clip-rule="evenodd" d="M32.4687 46.6453C32.2074 46.8666 31.8693 47 31.5 47C30.6716 47 30 46.3284 30 45.5C30 45.3418 30.0245 45.1893 30.0699 45.0462C29.8844 45.0158 29.6941 45 29.5 45C27.567 45 26 46.567 26 48.5V49H33V48.5C33 47.8188 32.8054 47.183 32.4687 46.6453Z" fill="#262A2A"/>
<circle cx="12.8876" cy="29.3345" r="3.5" transform="rotate(28.0189 12.8876 29.3345)" fill="#262A2A"/>
<path fill-rule="evenodd" clip-rule="evenodd" d="M20.9129 27.1121C18.8903 26.855 16.9509 27.38 15.3945 28.4531L14.2593 26.8065C16.2051 25.4649 18.6356 24.8066 21.1651 25.1281C24.0909 25.5001 26.5588 27.1076 28.1095 29.3568C29.451 31.3026 30.1094 33.7331 29.7879 36.2625C29.7182 36.8104 29.2176 37.1981 28.6697 37.1284C28.1219 37.0588 27.7342 36.5582 27.8038 36.0103C28.0609 33.9877 27.5359 32.0483 26.4629 30.492C25.2214 28.6914 23.2509 27.4094 20.9129 27.1121Z" fill="#262A2A"/>
<circle cx="4.38567" cy="40.6775" r="2.9685" transform="rotate(7.88413 4.38567 40.6775)" fill="#262A2A"/>
<path fill-rule="evenodd" clip-rule="evenodd" d="M10.1613 36.7128C8.51348 37.0899 7.15393 38.0519 6.24862 39.3314L4.61596 38.1762C5.79451 36.5105 7.56924 35.2543 9.71517 34.7632C12.1975 34.1951 14.6759 34.7649 16.6012 36.1271L16.0236 36.9434L16.6012 36.1271C18.2669 37.3057 19.5231 39.0804 20.0142 41.2263C20.1374 41.7647 19.8009 42.301 19.2625 42.4242C18.7241 42.5474 18.1878 42.2108 18.0646 41.6725C17.6875 40.0246 16.7256 38.6651 15.446 37.7598C13.9655 36.7123 12.066 36.2769 10.1613 36.7128Z" fill="#262A2A"/>
</svg>
