<svg width="246" height="122" viewBox="0 0 246 122" fill="none" xmlns="http://www.w3.org/2000/svg">
<circle cx="144.5" cy="24.5" r="2.5" fill="#84FFE4"/>
<circle cx="85.5" cy="119.5" r="2.5" fill="#E4CFB0"/>
<circle cx="73.5" cy="19.5" r="2.5" fill="#175286"/>
<circle cx="235" cy="85" r="2" fill="#D43404"/>
<circle cx="20" cy="55" r="2" fill="#FEBE00"/>
<circle cx="13" cy="110" r="2" fill="#D43404"/>
<path d="M37 30L-nan -nanL37 30C37.3429 30.9266 38.0734 31.6571 39 32L-nan -nanL39 32L-nan -nanL39 32C38.0734 32.3429 37.3429 33.0734 37 34L-nan -nanL37 34L-nan -nanL37 34C36.6571 33.0734 35.9266 32.3429 35 32L-nan -nanL35 32L-nan -nanL35 32C35.9266 31.6571 36.6571 30.9266 37 30L-nan -nanL37 30Z" fill="#D43404"/>
<path d="M207 102L-nan -nanL207 102C207.857 104.316 209.684 106.143 212 107L-nan -nanL212 107L-nan -nanL212 107C209.684 107.857 207.857 109.684 207 112L-nan -nanL207 112L-nan -nanL207 112C206.143 109.684 204.316 107.857 202 107L-nan -nanL202 107L-nan -nanL202 107C204.316 106.143 206.143 104.316 207 102L-nan -nanL207 102Z" fill="#175286"/>
<path d="M190.464 97.232C188.672 97.232 187.051 96.9333 185.6 96.336C184.171 95.7173 182.944 94.8747 181.92 93.808C180.896 92.7413 180.107 91.504 179.552 90.096C178.997 88.688 178.72 87.184 178.72 85.584C178.72 83.984 178.997 82.4907 179.552 81.104C180.107 79.696 180.896 78.4587 181.92 77.392C182.944 76.3253 184.171 75.4933 185.6 74.896C187.051 74.2987 188.672 74 190.464 74C192.256 74 193.867 74.2987 195.296 74.896C196.747 75.4933 197.984 76.3253 199.008 77.392C200.032 78.4587 200.821 79.696 201.376 81.104C201.931 82.4907 202.208 83.984 202.208 85.584C202.208 87.184 201.931 88.688 201.376 90.096C200.821 91.504 200.032 92.7413 199.008 93.808C197.984 94.8747 196.747 95.7173 195.296 96.336C193.867 96.9333 192.256 97.232 190.464 97.232ZM190.464 93.168C191.488 93.168 192.437 92.9867 193.312 92.624C194.187 92.24 194.944 91.7067 195.584 91.024C196.245 90.32 196.747 89.5093 197.088 88.592C197.451 87.6747 197.632 86.672 197.632 85.584C197.632 84.496 197.451 83.4933 197.088 82.576C196.747 81.6587 196.245 80.8587 195.584 80.176C194.944 79.4933 194.187 78.9707 193.312 78.608C192.437 78.224 191.488 78.032 190.464 78.032C189.44 78.032 188.491 78.224 187.616 78.608C186.741 78.9707 185.973 79.4933 185.312 80.176C184.672 80.8587 184.171 81.6587 183.808 82.576C183.467 83.4933 183.296 84.496 183.296 85.584C183.296 86.672 183.467 87.6747 183.808 88.592C184.171 89.5093 184.672 90.32 185.312 91.024C185.973 91.7067 186.741 92.24 187.616 92.624C188.491 92.9867 189.44 93.168 190.464 93.168Z" fill="#262A2A"/>
<path d="M165.058 97.232C163.266 97.232 161.644 96.9333 160.194 96.336C158.764 95.7173 157.538 94.8747 156.514 93.808C155.49 92.7413 154.7 91.504 154.146 90.096C153.591 88.688 153.314 87.184 153.314 85.584C153.314 83.984 153.591 82.4907 154.146 81.104C154.7 79.696 155.49 78.4587 156.514 77.392C157.538 76.3253 158.764 75.4933 160.194 74.896C161.644 74.2987 163.266 74 165.058 74C166.85 74 168.46 74.2987 169.89 74.896C171.34 75.4933 172.578 76.3253 173.602 77.392C174.626 78.4587 175.415 79.696 175.97 81.104C176.524 82.4907 176.802 83.984 176.802 85.584C176.802 87.184 176.524 88.688 175.97 90.096C175.415 91.504 174.626 92.7413 173.602 93.808C172.578 94.8747 171.34 95.7173 169.89 96.336C168.46 96.9333 166.85 97.232 165.058 97.232ZM165.058 93.168C166.082 93.168 167.031 92.9867 167.906 92.624C168.78 92.24 169.538 91.7067 170.178 91.024C170.839 90.32 171.34 89.5093 171.682 88.592C172.044 87.6747 172.226 86.672 172.226 85.584C172.226 84.496 172.044 83.4933 171.682 82.576C171.34 81.6587 170.839 80.8587 170.178 80.176C169.538 79.4933 168.78 78.9707 167.906 78.608C167.031 78.224 166.082 78.032 165.058 78.032C164.034 78.032 163.084 78.224 162.21 78.608C161.335 78.9707 160.567 79.4933 159.906 80.176C159.266 80.8587 158.764 81.6587 158.402 82.576C158.06 83.4933 157.89 84.496 157.89 85.584C157.89 86.672 158.06 87.6747 158.402 88.592C158.764 89.5093 159.266 90.32 159.906 91.024C160.567 91.7067 161.335 92.24 162.21 92.624C163.084 92.9867 164.034 93.168 165.058 93.168Z" fill="#262A2A"/>
<path d="M145.803 96.816C144.481 96.816 143.318 96.5174 142.315 95.92C141.313 95.3014 140.534 94.4907 139.979 93.488C139.425 92.464 139.147 91.344 139.147 90.128V76.704C139.147 75.4404 140.172 74.416 141.435 74.416V74.416C142.699 74.416 143.723 75.4404 143.723 76.704V90.672C143.723 91.248 143.926 91.7494 144.331 92.176C144.737 92.5814 145.227 92.784 145.803 92.784H149.707C150.821 92.784 151.723 93.6866 151.723 94.8V94.8C151.723 95.9134 150.821 96.816 149.707 96.816H145.803Z" fill="#262A2A"/>
<path d="M117.654 96.816C116.097 96.816 115.015 95.2668 115.551 93.805L121.743 76.912C122.106 75.952 122.671 75.2373 123.439 74.768C124.229 74.2773 125.114 74.032 126.095 74.032C127.077 74.032 127.962 74.2667 128.751 74.736C129.541 75.184 130.106 75.8987 130.447 76.88L136.622 93.6786C137.182 95.2012 136.055 96.816 134.433 96.816V96.816C133.429 96.816 132.537 96.1735 132.22 95.221L131.247 92.304H120.815L119.77 95.3113C119.457 96.2121 118.608 96.816 117.654 96.816V96.816ZM122.191 88.272H129.903L126.671 78.448C126.629 78.2987 126.554 78.192 126.447 78.128C126.362 78.064 126.255 78.032 126.127 78.032C125.999 78.032 125.893 78.0747 125.807 78.16C125.722 78.224 125.658 78.32 125.615 78.448L122.191 88.272Z" fill="#262A2A"/>
<path d="M146 67.992C152.5 67.992 152.3 68.3318 157.5 64.5936C164 59.9208 165 52 175.5 48" stroke="#262A2A" stroke-width="4" stroke-linecap="round" stroke-dasharray="6 6"/>
<path d="M107.217 103.792C105.98 103.792 104.913 103.568 104.017 103.12C103.143 102.693 102.471 102.064 102.001 101.232C101.553 100.4 101.329 99.4187 101.329 98.288C101.329 98.0107 101.34 97.7227 101.361 97.424C101.383 97.1467 101.415 96.8587 101.457 96.56C99.7079 96.56 98.1293 96.272 96.7213 95.696C95.3133 95.0987 94.1079 94.288 93.1053 93.264C92.1026 92.2187 91.3346 91.0133 90.8013 89.648C90.2679 88.2827 90.0013 86.832 90.0013 85.296C90.0013 83.7387 90.2679 82.288 90.8013 80.944C91.3346 79.5787 92.1026 78.384 93.1053 77.36C94.1079 76.3147 95.3133 75.504 96.7213 74.928C98.1293 74.3307 99.6973 74.032 101.425 74.032C103.153 74.032 104.721 74.32 106.129 74.896C107.537 75.4507 108.743 76.24 109.745 77.264C110.748 78.2667 111.516 79.4293 112.049 80.752C112.583 82.0533 112.849 83.4613 112.849 84.976V97.712C112.849 98.8213 112.647 99.8347 112.241 100.752C111.836 101.691 111.217 102.427 110.385 102.96C109.553 103.515 108.497 103.792 107.217 103.792ZM106.929 99.696C107.377 99.696 107.708 99.5147 107.921 99.152C108.156 98.8107 108.273 98.352 108.273 97.776V92.144C107.548 92.784 106.993 93.4027 106.609 94C106.247 94.5973 105.991 95.152 105.841 95.664C105.692 96.176 105.607 96.6133 105.585 96.976C105.585 97.3387 105.585 97.6053 105.585 97.776C105.585 98.1813 105.639 98.5227 105.745 98.8C105.873 99.0987 106.044 99.3227 106.257 99.472C106.471 99.6213 106.695 99.696 106.929 99.696ZM101.425 92.528C101.724 92.528 102.012 92.5173 102.289 92.496C102.567 92.4533 102.844 92.4 103.121 92.336C103.484 91.7813 103.911 91.2267 104.401 90.672C104.892 90.1173 105.457 89.5733 106.097 89.04C106.737 88.5067 107.463 87.9947 108.273 87.504V84.976C108.273 83.9947 108.103 83.088 107.761 82.256C107.42 81.4027 106.94 80.6667 106.321 80.048C105.703 79.4293 104.977 78.9493 104.145 78.608C103.313 78.2453 102.407 78.064 101.425 78.064C100.444 78.064 99.5373 78.2453 98.7053 78.608C97.8733 78.9707 97.1479 79.4827 96.5293 80.144C95.9106 80.784 95.4306 81.552 95.0893 82.448C94.7479 83.3227 94.5773 84.272 94.5773 85.296C94.5773 86.32 94.7479 87.28 95.0893 88.176C95.4306 89.0507 95.9106 89.8187 96.5293 90.48C97.1479 91.12 97.8733 91.6213 98.7053 91.984C99.5373 92.3467 100.444 92.528 101.425 92.528Z" fill="#262A2A"/>
<path d="M76.339 97.232C74.547 97.232 72.9257 96.9333 71.475 96.336C70.0457 95.7173 68.819 94.8747 67.795 93.808C66.771 92.7413 65.9817 91.504 65.427 90.096C64.8723 88.688 64.595 87.184 64.595 85.584C64.595 83.984 64.8723 82.4907 65.427 81.104C65.9817 79.696 66.771 78.4587 67.795 77.392C68.819 76.3253 70.0457 75.4933 71.475 74.896C72.9257 74.2987 74.547 74 76.339 74C78.131 74 79.7417 74.2987 81.171 74.896C82.6217 75.4933 83.859 76.3253 84.883 77.392C85.907 78.4587 86.6963 79.696 87.251 81.104C87.8057 82.4907 88.083 83.984 88.083 85.584C88.083 87.184 87.8057 88.688 87.251 90.096C86.6963 91.504 85.907 92.7413 84.883 93.808C83.859 94.8747 82.6217 95.7173 81.171 96.336C79.7417 96.9333 78.131 97.232 76.339 97.232ZM76.339 93.168C77.363 93.168 78.3123 92.9867 79.187 92.624C80.0617 92.24 80.819 91.7067 81.459 91.024C82.1203 90.32 82.6217 89.5093 82.963 88.592C83.3257 87.6747 83.507 86.672 83.507 85.584C83.507 84.496 83.3257 83.4933 82.963 82.576C82.6217 81.6587 82.1203 80.8587 81.459 80.176C80.819 79.4933 80.0617 78.9707 79.187 78.608C78.3123 78.224 77.363 78.032 76.339 78.032C75.315 78.032 74.3657 78.224 73.491 78.608C72.6163 78.9707 71.8483 79.4933 71.187 80.176C70.547 80.8587 70.0457 81.6587 69.683 82.576C69.3417 83.4933 69.171 84.496 69.171 85.584C69.171 86.672 69.3417 87.6747 69.683 88.592C70.0457 89.5093 70.547 90.32 71.187 91.024C71.8483 91.7067 72.6163 92.24 73.491 92.624C74.3657 92.9867 75.315 93.168 76.339 93.168Z" fill="#262A2A"/>
<path d="M50.9328 97.232C49.1408 97.232 47.5194 96.9333 46.0687 96.336C44.6394 95.7173 43.4127 94.8747 42.3887 93.808C41.3647 92.7413 40.5754 91.504 40.0207 90.096C39.4661 88.688 39.1887 87.184 39.1887 85.584C39.1887 83.984 39.4661 82.4907 40.0207 81.104C40.5754 79.696 41.3647 78.4587 42.3887 77.392C43.4127 76.3253 44.6394 75.4933 46.0687 74.896C47.5194 74.2987 49.1408 74 50.9328 74C52.7248 74 54.3354 74.2987 55.7648 74.896C57.2154 75.4933 58.4527 76.3253 59.4767 77.392C60.5007 78.4587 61.2901 79.696 61.8447 81.104C62.3994 82.4907 62.6768 83.984 62.6768 85.584C62.6768 87.184 62.3994 88.688 61.8447 90.096C61.2901 91.504 60.5007 92.7413 59.4767 93.808C58.4527 94.8747 57.2154 95.7173 55.7648 96.336C54.3354 96.9333 52.7248 97.232 50.9328 97.232ZM50.9328 93.168C51.9568 93.168 52.9061 92.9867 53.7808 92.624C54.6554 92.24 55.4127 91.7067 56.0527 91.024C56.7141 90.32 57.2154 89.5093 57.5568 88.592C57.9194 87.6747 58.1007 86.672 58.1007 85.584C58.1007 84.496 57.9194 83.4933 57.5568 82.576C57.2154 81.6587 56.7141 80.8587 56.0527 80.176C55.4127 79.4933 54.6554 78.9707 53.7808 78.608C52.9061 78.224 51.9568 78.032 50.9328 78.032C49.9088 78.032 48.9594 78.224 48.0848 78.608C47.2101 78.9707 46.4421 79.4933 45.7807 80.176C45.1407 80.8587 44.6394 81.6587 44.2767 82.576C43.9354 83.4933 43.7647 84.496 43.7647 85.584C43.7647 86.672 43.9354 87.6747 44.2767 88.592C44.6394 89.5093 45.1407 90.32 45.7807 91.024C46.4421 91.7067 47.2101 92.24 48.0848 92.624C48.9594 92.9867 49.9088 93.168 50.9328 93.168Z" fill="#262A2A"/>
<path d="M18 96.816V74.416H30.576C31.6427 74.416 32.6027 74.6613 33.456 75.152C34.3307 75.6213 35.024 76.2827 35.536 77.136C36.0693 77.9893 36.336 79.0027 36.336 80.176C36.336 80.9227 36.1867 81.6373 35.888 82.32C35.5893 82.9813 35.184 83.5573 34.672 84.048C34.16 84.5387 33.5627 84.9227 32.88 85.2C33.6693 85.456 34.3627 85.872 34.96 86.448C35.5787 87.0027 36.0587 87.664 36.4 88.432C36.7627 89.1787 36.944 89.9894 36.944 90.864C36.944 92.0587 36.6667 93.104 36.112 94C35.5787 94.896 34.864 95.5894 33.968 96.08C33.072 96.5707 32.0693 96.816 30.96 96.816H18ZM22.576 92.784H29.648C30.16 92.784 30.6187 92.6667 31.024 92.432C31.4293 92.176 31.7493 91.8454 31.984 91.44C32.24 91.0134 32.368 90.5547 32.368 90.064C32.368 89.552 32.24 89.0934 31.984 88.688C31.7493 88.2827 31.4293 87.9627 31.024 87.728C30.6187 87.472 30.16 87.344 29.648 87.344H22.576V92.784ZM22.576 83.504H29.232C29.7013 83.504 30.128 83.3974 30.512 83.184C30.896 82.9494 31.1947 82.64 31.408 82.256C31.6427 81.872 31.76 81.4454 31.76 80.976C31.76 80.5067 31.6427 80.08 31.408 79.696C31.1947 79.312 30.896 79.0134 30.512 78.8C30.128 78.5654 29.7013 78.448 29.232 78.448H22.576V83.504Z" fill="#262A2A"/>
<path d="M141.228 70C139.991 70 138.86 69.7013 137.836 69.104C136.833 68.5067 136.033 67.7067 135.436 66.704C134.839 65.68 134.54 64.5493 134.54 63.312C134.54 62.416 134.732 61.5733 135.116 60.784C135.5 59.9947 136.023 59.3013 136.684 58.704C136.023 58.1067 135.5 57.4133 135.116 56.624C134.732 55.8347 134.54 55.0027 134.54 54.128C134.54 52.912 134.828 51.8133 135.404 50.832C136.001 49.8507 136.791 49.072 137.772 48.496C138.775 47.8987 139.873 47.6 141.068 47.6H148.268C149.381 47.6 150.284 48.5026 150.284 49.616V49.616C150.284 50.7294 149.381 51.632 148.268 51.632H141.58C141.132 51.632 140.716 51.7493 140.332 51.984C139.969 52.1973 139.671 52.496 139.436 52.88C139.223 53.2427 139.116 53.6587 139.116 54.128C139.116 54.576 139.223 54.992 139.436 55.376C139.671 55.7387 139.969 56.0373 140.332 56.272C140.716 56.4853 141.132 56.592 141.58 56.592H147.18C148.293 56.592 149.196 57.4946 149.196 58.608V58.608C149.196 59.7214 148.293 60.624 147.18 60.624H141.772C141.281 60.624 140.833 60.752 140.428 61.008C140.023 61.2427 139.703 61.5627 139.468 61.968C139.233 62.3733 139.116 62.8213 139.116 63.312C139.116 63.8027 139.233 64.2507 139.468 64.656C139.703 65.0613 140.023 65.3813 140.428 65.616C140.833 65.8507 141.281 65.968 141.772 65.968H148.268C149.381 65.968 150.284 66.8706 150.284 67.984V67.984C150.284 69.0974 149.381 70 148.268 70H141.228Z" fill="#262A2A"/>
<path d="M126.71 70C125.387 70 124.224 69.7013 123.222 69.104C122.219 68.4853 121.44 67.6747 120.886 66.672C120.331 65.648 120.054 64.528 120.054 63.312V49.888C120.054 48.6244 121.078 47.6 122.342 47.6V47.6C123.605 47.6 124.63 48.6244 124.63 49.888V63.856C124.63 64.432 124.832 64.9333 125.238 65.36C125.643 65.7653 126.134 65.968 126.71 65.968H130.614C131.727 65.968 132.63 66.8706 132.63 67.984V67.984C132.63 69.0974 131.727 70 130.614 70H126.71Z" fill="#262A2A"/>
<path d="M97.9688 70V47.6H110.545C111.611 47.6 112.571 47.8453 113.425 48.336C114.299 48.8053 114.993 49.4667 115.505 50.32C116.038 51.1733 116.305 52.1867 116.305 53.36C116.305 54.1067 116.155 54.8213 115.857 55.504C115.558 56.1653 115.153 56.7413 114.641 57.232C114.129 57.7227 113.531 58.1067 112.849 58.384C113.638 58.64 114.331 59.056 114.929 59.632C115.547 60.1867 116.027 60.848 116.369 61.616C116.731 62.3627 116.913 63.1733 116.913 64.048C116.913 65.2427 116.635 66.288 116.081 67.184C115.547 68.08 114.833 68.7733 113.937 69.264C113.041 69.7547 112.038 70 110.929 70H97.9688ZM102.545 65.968H109.617C110.129 65.968 110.587 65.8507 110.993 65.616C111.398 65.36 111.718 65.0293 111.953 64.624C112.209 64.1973 112.337 63.7387 112.337 63.248C112.337 62.736 112.209 62.2773 111.953 61.872C111.718 61.4667 111.398 61.1467 110.993 60.912C110.587 60.656 110.129 60.528 109.617 60.528H102.545V65.968ZM102.545 56.688H109.201C109.67 56.688 110.097 56.5813 110.481 56.368C110.865 56.1333 111.163 55.824 111.377 55.44C111.611 55.056 111.729 54.6293 111.729 54.16C111.729 53.6907 111.611 53.264 111.377 52.88C111.163 52.496 110.865 52.1973 110.481 51.984C110.097 51.7493 109.67 51.632 109.201 51.632H102.545V56.688Z" fill="#262A2A"/>
<path d="M78.354 70.352C77.0953 70.352 75.954 70.064 74.93 69.488C73.9273 68.912 73.138 68.1227 72.562 67.12C71.986 66.1173 71.698 64.9653 71.698 63.664V53.36C71.698 52.976 71.602 52.624 71.41 52.304C71.218 51.984 70.962 51.728 70.642 51.536C70.322 51.344 69.97 51.248 69.586 51.248C69.202 51.248 68.85 51.344 68.53 51.536C68.2313 51.728 67.986 51.984 67.794 52.304C67.602 52.624 67.506 52.976 67.506 53.36V70H62.93V53.904C62.93 52.6667 63.2073 51.5467 63.762 50.544C64.3167 49.5413 65.0953 48.7413 66.098 48.144C67.1007 47.5253 68.2633 47.216 69.586 47.216C70.93 47.216 72.1033 47.5253 73.106 48.144C74.1087 48.7413 74.8873 49.5413 75.442 50.544C75.9967 51.5467 76.274 52.6667 76.274 53.904V64.208C76.274 64.592 76.37 64.944 76.562 65.264C76.754 65.584 76.9993 65.84 77.298 66.032C77.618 66.224 77.97 66.32 78.354 66.32C78.738 66.32 79.09 66.224 79.41 66.032C79.73 65.84 79.986 65.584 80.178 65.264C80.37 64.944 80.466 64.592 80.466 64.208V53.904C80.466 52.6667 80.7433 51.5467 81.298 50.544C81.8527 49.5413 82.6313 48.7413 83.634 48.144C84.658 47.5253 85.8313 47.216 87.154 47.216C88.498 47.216 89.6607 47.5253 90.642 48.144C91.6447 48.7413 92.4233 49.5413 92.978 50.544C93.5327 51.5467 93.81 52.6667 93.81 53.904V70H89.234V53.36C89.234 52.976 89.138 52.624 88.946 52.304C88.7753 51.984 88.53 51.728 88.21 51.536C87.89 51.344 87.538 51.248 87.154 51.248C86.77 51.248 86.418 51.344 86.098 51.536C85.778 51.728 85.522 51.984 85.33 52.304C85.138 52.624 85.042 52.976 85.042 53.36V63.664C85.042 64.9653 84.7433 66.1173 84.146 67.12C83.57 68.1227 82.7807 68.912 81.778 69.488C80.7753 70.064 79.634 70.352 78.354 70.352Z" fill="#262A2A"/>
<path d="M49.6208 70.384C47.8074 70.384 46.1968 70.0107 44.7888 69.264C43.4021 68.5173 42.3034 67.4613 41.4928 66.096C40.7034 64.7093 40.3088 63.0667 40.3088 61.168V49.888C40.3088 48.6244 41.3331 47.6 42.5968 47.6V47.6C43.8604 47.6 44.8848 48.6244 44.8848 49.888V61.456C44.8848 62.352 45.0768 63.1733 45.4608 63.92C45.8448 64.6453 46.3888 65.232 47.0928 65.68C47.8181 66.128 48.6608 66.352 49.6208 66.352C50.6021 66.352 51.4448 66.128 52.1488 65.68C52.8528 65.232 53.3968 64.6453 53.7808 63.92C54.1648 63.1733 54.3568 62.352 54.3568 61.456V49.888C54.3568 48.6244 55.3811 47.6 56.6448 47.6V47.6C57.9084 47.6 58.9328 48.6244 58.9328 49.888V61.168C58.9328 63.0667 58.5274 64.7093 57.7168 66.096C56.9274 67.4613 55.8288 68.5173 54.4208 69.264C53.0341 70.0107 51.4341 70.384 49.6208 70.384Z" fill="#262A2A"/>
<path d="M18 70V47.6H30.576C31.6427 47.6 32.6027 47.8453 33.456 48.336C34.3307 48.8053 35.024 49.4667 35.536 50.32C36.0693 51.1733 36.336 52.1867 36.336 53.36C36.336 54.1067 36.1867 54.8213 35.888 55.504C35.5893 56.1653 35.184 56.7413 34.672 57.232C34.16 57.7227 33.5627 58.1067 32.88 58.384C33.6693 58.64 34.3627 59.056 34.96 59.632C35.5787 60.1867 36.0587 60.848 36.4 61.616C36.7627 62.3627 36.944 63.1733 36.944 64.048C36.944 65.2427 36.6667 66.288 36.112 67.184C35.5787 68.08 34.864 68.7733 33.968 69.264C33.072 69.7547 32.0693 70 30.96 70H18ZM22.576 65.968H29.648C30.16 65.968 30.6187 65.8507 31.024 65.616C31.4293 65.36 31.7493 65.0293 31.984 64.624C32.24 64.1973 32.368 63.7387 32.368 63.248C32.368 62.736 32.24 62.2773 31.984 61.872C31.7493 61.4667 31.4293 61.1467 31.024 60.912C30.6187 60.656 30.16 60.528 29.648 60.528H22.576V65.968ZM22.576 56.688H29.232C29.7013 56.688 30.128 56.5813 30.512 56.368C30.896 56.1333 31.1947 55.824 31.408 55.44C31.6427 55.056 31.76 54.6293 31.76 54.16C31.76 53.6907 31.6427 53.264 31.408 52.88C31.1947 52.496 30.896 52.1973 30.512 51.984C30.128 51.7493 29.7013 51.632 29.232 51.632H22.576V56.688Z" fill="#262A2A"/>
<rect width="38.1364" height="32.0693" rx="16.0346" transform="matrix(-0.970256 0.242081 0.242081 0.970256 216.009 23.2999)" fill="#D43404"/>
<rect width="39.4667" height="28.0909" rx="14.0455" transform="matrix(-0.970256 0.242081 0.242081 0.970256 220.439 23.2999)" fill="#FEBE00"/>
<rect x="-0.631136" y="1.05078" width="36.4029" height="30.3358" rx="15.1679" transform="matrix(-0.970256 0.242081 0.242081 0.970256 214.511 23.4839)" stroke="#262A2A" stroke-width="1.73347"/>
<path fill-rule="evenodd" clip-rule="evenodd" d="M210.634 57.4866C203.586 56.5622 197.483 51.4418 195.658 44.1271C194.087 37.8329 196.076 31.4852 200.349 27.207L194.565 28.6503C193.835 28.8324 193.129 29.0619 192.45 29.3345C190.004 34.1146 189.21 39.7668 190.612 45.386C192.213 51.8037 196.363 56.9138 201.714 59.9064C201.919 59.8636 202.123 59.8168 202.328 59.7657L208.215 58.297C209.054 58.0874 209.862 57.8152 210.634 57.4866Z" fill="#262A2A"/>
<path fill-rule="evenodd" clip-rule="evenodd" d="M218.191 50.8057C212.39 49.0461 207.633 44.3693 206.059 38.0599C205.095 34.1988 205.471 30.3174 206.892 26.9061C205.094 26.6144 203.219 26.6271 201.34 26.9861C200.146 30.86 199.96 35.0988 201.013 39.3188C202.856 46.7055 208.076 52.36 214.616 55.0472C216.052 53.8456 217.259 52.4062 218.191 50.8057Z" fill="#262A2A"/>
<path d="M224.394 20.0558C224.114 14.8854 220.029 10.7321 214.864 10.3653V10.3653C206.352 9.76092 200.856 19.1969 205.582 26.3022L213.864 38.7531C215.223 40.797 217.662 41.8451 220.08 41.4252V41.4252C223.173 40.8882 225.375 38.1219 225.205 34.9873L224.394 20.0558Z" fill="#84FFE4"/>
<path fill-rule="evenodd" clip-rule="evenodd" d="M224.697 25.6329L225.205 34.9873C225.375 38.1219 223.173 40.8882 220.08 41.4252C217.662 41.8451 215.223 40.797 213.864 38.7531L205.582 26.3022C202.98 22.3891 203.477 17.7692 205.871 14.5087L213.879 26.5487C215.239 28.5927 217.677 29.6408 220.096 29.2209C222.193 28.8567 223.881 27.4672 224.697 25.6329Z" fill="#175286"/>
<path fill-rule="evenodd" clip-rule="evenodd" d="M214.864 10.3653C220.029 10.7321 224.114 14.8854 224.394 20.0558L225.205 34.9873C225.375 38.1219 223.173 40.8882 220.08 41.4252C220.067 41.4275 220.053 41.4299 220.04 41.4321C220.676 40.3933 221.012 39.1598 220.941 37.8633L220.13 22.9318C219.85 17.7614 215.765 13.6081 210.6 13.2413C209.117 13.136 207.725 13.3356 206.463 13.7746C208.442 11.5331 211.404 10.1196 214.864 10.3653Z" fill="white"/>
<path d="M206.304 25.8222L214.586 38.2731C215.755 40.0309 217.852 40.9324 219.932 40.5712C222.592 40.1094 224.486 37.7303 224.34 35.0343L223.529 20.1028C223.272 15.3686 219.532 11.5657 214.803 11.2299C207.009 10.6765 201.977 19.3163 206.304 25.8222Z" stroke="#262A2A" stroke-width="1.73347"/>
<path d="M207.155 18.6274C204.494 14.186 198.942 12.4196 194.203 14.5062V14.5062C186.393 17.9451 185.938 28.8551 193.434 32.9328L206.57 40.0783C208.727 41.2513 211.372 41.04 213.315 39.5397V39.5397C215.8 37.621 216.456 34.1467 214.842 31.4539L207.155 18.6274Z" fill="#84FFE4"/>
<path fill-rule="evenodd" clip-rule="evenodd" d="M215.687 35.3025C215.511 36.9278 214.695 38.4738 213.315 39.5397C211.372 41.04 208.727 41.2513 206.57 40.0783L193.434 32.9328C188.021 29.988 186.754 23.4797 189.41 18.7956C188.517 22.9706 190.189 27.6426 194.542 30.0106L207.678 37.156C209.834 38.329 212.48 38.1178 214.423 36.6174C214.918 36.2348 215.341 35.7903 215.687 35.3025Z" fill="#175286"/>
<path fill-rule="evenodd" clip-rule="evenodd" d="M194.392 14.4255C199.089 12.4668 204.529 14.2447 207.155 18.6275L214.842 31.454C216.456 34.1467 215.8 37.621 213.315 39.5397C212.109 40.4707 210.633 40.9053 209.171 40.8208C209.436 40.673 209.691 40.5046 209.936 40.3157C212.421 38.397 213.077 34.9227 211.463 32.23L203.776 19.4035C201.765 16.0478 198.105 14.2192 194.392 14.4255Z" fill="white"/>
<path d="M193.849 32.1715L206.984 39.3169C208.839 40.3257 211.114 40.144 212.785 38.8537C214.922 37.2035 215.487 34.2154 214.099 31.8995L206.412 19.073C203.975 15.0062 198.892 13.3889 194.553 15.2995C187.402 18.4482 186.985 28.4378 193.849 32.1715Z" stroke="#262A2A" stroke-width="1.73347"/>
<rect x="-0.866737" y="0.866737" width="30.3358" height="30.3358" rx="15.1679" transform="matrix(-1 0 0 1 236.773 27.6336)" fill="#D43404" stroke="#262A2A" stroke-width="1.73347"/>
<rect width="27.7356" height="27.7356" rx="13.8678" transform="matrix(-1 0 0 1 236.773 29.3671)" fill="#FEBE00"/>
<path d="M222.906 29.3671C230.565 29.3671 236.773 35.5759 236.773 43.2349C236.773 47.2848 235.037 50.9293 232.269 53.4647C234.528 50.9976 235.907 47.7106 235.907 44.1016C235.907 36.4426 229.698 30.2338 222.039 30.2338C218.43 30.2338 215.143 31.6124 212.676 33.8717C215.211 31.1032 218.856 29.3671 222.906 29.3671Z" fill="white"/>
<path d="M229.839 45.8351H222.039V46.2685C222.039 48.4225 223.785 50.1688 225.939 50.1688V50.1688C228.093 50.1688 229.839 48.4225 229.839 46.2685V45.8351Z" fill="#262A2A"/>
<path fill-rule="evenodd" clip-rule="evenodd" d="M227.7 40.3272C227.926 40.519 228.219 40.6347 228.539 40.6347C229.257 40.6347 229.839 40.0526 229.839 39.3346C229.839 39.1974 229.818 39.0653 229.779 38.9412C229.94 38.9149 230.105 38.9012 230.273 38.9012C231.948 38.9012 233.306 40.2594 233.306 41.9348V42.3681H227.239V41.9348C227.239 41.3443 227.408 40.7933 227.7 40.3272Z" fill="#262A2A"/>
<path fill-rule="evenodd" clip-rule="evenodd" d="M218.166 40.3272C218.392 40.519 218.685 40.6347 219.005 40.6347C219.723 40.6347 220.305 40.0526 220.305 39.3346C220.305 39.1974 220.284 39.0653 220.245 38.9412C220.406 38.9149 220.571 38.9012 220.739 38.9012C222.414 38.9012 223.772 40.2594 223.772 41.9348V42.3681H217.705V41.9348C217.705 41.3443 217.874 40.7933 218.166 40.3272Z" fill="#262A2A"/>
<ellipse cx="3.03358" cy="3.03358" rx="3.03358" ry="3.03358" transform="matrix(-0.882793 0.469763 0.469763 0.882793 236.39 21.2202)" fill="#262A2A"/>
<path fill-rule="evenodd" clip-rule="evenodd" d="M228.182 23.3971C229.935 23.1742 231.615 23.6293 232.964 24.5593L233.948 23.1322C232.262 21.9694 230.155 21.3987 227.963 21.6775C225.427 21.9998 223.288 23.3931 221.944 25.3426C220.781 27.0291 220.211 29.1357 220.489 31.3281C220.55 31.8029 220.983 32.139 221.458 32.0786C221.933 32.0182 222.269 31.5843 222.209 31.1095C221.986 29.3564 222.441 27.6755 223.371 26.3265C224.447 24.7659 226.155 23.6547 228.182 23.3971Z" fill="#262A2A"/>
<ellipse cx="2.57291" cy="2.57291" rx="2.57291" ry="2.57291" transform="matrix(-0.990547 0.13717 0.13717 0.990547 244.702 32.2532)" fill="#262A2A"/>
<path fill-rule="evenodd" clip-rule="evenodd" d="M237.5 31.7183C238.929 32.0452 240.107 32.8789 240.892 33.988L242.307 32.9867C241.285 31.543 239.747 30.4542 237.887 30.0285C235.735 29.5362 233.587 30.03 231.919 31.2107L232.419 31.9182L231.919 31.2107C230.475 32.2322 229.386 33.7704 228.96 35.6304C228.854 36.097 229.145 36.5618 229.612 36.6686C230.079 36.7754 230.543 36.4837 230.65 36.0171C230.977 34.5888 231.811 33.4104 232.92 32.6258C234.203 31.7179 235.849 31.3405 237.5 31.7183Z" fill="#262A2A"/>
<circle cx="3" cy="77" r="3" fill="white"/>
</svg>
