<svg width="85" height="91" viewBox="0 0 85 91" fill="none" xmlns="http://www.w3.org/2000/svg">
<rect x="18" y="14" width="48" height="19" rx="9.5" fill="#AE8F6A"/>
<rect x="11" y="31" width="62" height="19" rx="9.5" fill="#AE8F6A"/>
<rect x="11" y="65" width="62" height="19" rx="9.5" fill="#AE8F6A"/>
<rect x="3" y="48" width="78" height="19" rx="9.5" fill="#AE8F6A"/>
<rect x="11" y="31" width="55" height="19" rx="9.5" fill="#E4CFB0"/>
<rect x="3" y="48" width="65" height="19" rx="9.5" fill="#E4CFB0"/>
<rect x="11" y="65" width="53" height="19" rx="9.5" fill="#E4CFB0"/>
<rect x="18" y="14" width="44" height="19" rx="9.5" fill="#E4CFB0"/>
<path fill-rule="evenodd" clip-rule="evenodd" d="M22.5 31C17.2533 31 13 35.2533 13 40.5C13 43.6335 14.5171 46.4127 16.8569 48.1431C15.69 46.5652 15 44.6132 15 42.5C15 37.2533 19.2533 33 24.5 33H53.3317C51.722 31.7466 49.6982 31 47.5 31H22.5Z" fill="white"/>
<path fill-rule="evenodd" clip-rule="evenodd" d="M27.5 14C22.2533 14 18 18.2533 18 23.5C18 28.4489 21.7841 32.5139 26.6167 32.9595C24.4138 31.2197 23 28.5249 23 25.5C23 20.2533 27.2533 16 32.5 16H55.5C56.8007 16 58.0403 16.2614 59.1692 16.7345C57.454 15.0436 55.0989 14 52.5 14H27.5Z" fill="white"/>
<rect x="19" y="15" width="46" height="17" rx="8.5" stroke="#262A2A" stroke-width="2"/>
<rect x="12" y="32" width="60" height="17" rx="8.5" stroke="#262A2A" stroke-width="2"/>
<rect x="12" y="66" width="60" height="17" rx="8.5" stroke="#262A2A" stroke-width="2"/>
<rect x="4" y="49" width="76" height="17" rx="8.5" stroke="#262A2A" stroke-width="2"/>
<circle cx="9" cy="20" r="3" fill="#84FFE4"/>
<circle cx="83" cy="43" r="2" fill="#FEBE00"/>
<circle cx="54" cy="6" r="2" fill="#FEBE00"/>
<circle cx="2" cy="76" r="2" fill="#D43404"/>
<path d="M19.5 0L-nan -nanL19.5 0C20.2714 2.08481 21.9152 3.72855 24 4.5L-nan -nanL24 4.5L-nan -nanL24 4.5C21.9152 5.27145 20.2714 6.91519 19.5 9L-nan -nanL19.5 9L-nan -nanL19.5 9C18.7286 6.91519 17.0848 5.27145 15 4.5L-nan -nanL15 4.5L-nan -nanL15 4.5C17.0848 3.72855 18.7286 2.08481 19.5 0L-nan -nanL19.5 0Z" fill="#175286"/>
<path d="M79.5 82L-nan -nanL79.5 82C80.1 83.6215 81.3785 84.9 83 85.5L-nan -nanL83 85.5L-nan -nanL83 85.5C81.3785 86.1 80.1 87.3785 79.5 89L-nan -nanL79.5 89L-nan -nanL79.5 89C78.9 87.3785 77.6215 86.1 76 85.5L-nan -nanL76 85.5L-nan -nanL76 85.5C77.6215 84.9 78.9 83.6215 79.5 82L-nan -nanL79.5 82Z" fill="#D43404"/>
<path d="M59 51V65H37V51C37 44.9249 41.9249 40 48 40C54.0751 40 59 44.9249 59 51Z" fill="#262A2A" stroke="#262A2A" stroke-width="2"/>
<path fill-rule="evenodd" clip-rule="evenodd" d="M36 57C33.2386 57 31 59.2386 31 62C31 64.7614 33.2386 67 36 67L36 71C36 73.7614 38.2386 76 41 76C43.7614 76 46 73.7614 46 71V70.9776C48.2952 70.7708 50.1838 69.154 50.793 67H60V57H36ZM36 83C36 80.2386 38.2386 78 41 78C43.7614 78 46 80.2386 46 83V86C46 88.7614 43.7614 91 41 91C38.2386 91 36 88.7614 36 86V83Z" fill="#FEBE00"/>
<mask id="path-23-inside-1_7_219" fill="white">
<path fill-rule="evenodd" clip-rule="evenodd" d="M35 57C32.2386 57 30 59.2386 30 62C30 64.7614 32.2386 67 35 67H36V71C36 73.7614 38.2386 76 41 76C43.7614 76 46 73.7614 46 71V70.9776C48.2952 70.7708 50.1838 69.154 50.793 67H60V57H35ZM36 83C36 80.2386 38.2386 78 41 78C43.7614 78 46 80.2386 46 83V86C46 88.7614 43.7614 91 41 91C38.2386 91 36 88.7614 36 86V83Z"/>
</mask>
<path d="M36 67H38V65H36V67ZM46 70.9776L45.8205 68.9856L44 69.1497V70.9776H46ZM50.793 67V65H49.2802L48.8685 66.4557L50.793 67ZM60 67V69H62V67H60ZM60 57H62V55H60V57ZM32 62C32 60.3431 33.3431 59 35 59V55C31.134 55 28 58.134 28 62H32ZM35 65C33.3431 65 32 63.6569 32 62H28C28 65.866 31.134 69 35 69V65ZM36 65H35V69H36V65ZM38 71V67H34V71H38ZM41 74C39.3431 74 38 72.6569 38 71H34C34 74.866 37.134 78 41 78V74ZM44 71C44 72.6569 42.6569 74 41 74V78C44.866 78 48 74.866 48 71H44ZM44 70.9776V71H48V70.9776H44ZM48.8685 66.4557C48.4808 67.8264 47.2756 68.8545 45.8205 68.9856L46.1795 72.9695C49.3147 72.687 51.8867 70.4815 52.7175 67.5443L48.8685 66.4557ZM60 65H50.793V69H60V65ZM58 57V67H62V57H58ZM35 59H60V55H35V59ZM41 76C37.134 76 34 79.134 34 83H38C38 81.3431 39.3431 80 41 80V76ZM48 83C48 79.134 44.866 76 41 76V80C42.6569 80 44 81.3431 44 83H48ZM48 86V83H44V86H48ZM41 93C44.866 93 48 89.866 48 86H44C44 87.6569 42.6569 89 41 89V93ZM34 86C34 89.866 37.134 93 41 93V89C39.3431 89 38 87.6569 38 86H34ZM34 83V86H38V83H34Z" fill="#262A2A" mask="url(#path-23-inside-1_7_219)"/>
</svg>
